<svg xmlns="http://www.w3.org/2000/svg" viewBox="0 0 34.886 35.929"><defs><style>.a{fill:#3a2c51;}.b{fill:#607d8b;}.c{fill:#fff;}</style></defs><g transform="translate(-5.747)"><path class="a" d="M123.008,2.844h8.342V5.451h2.844V2.37A2.347,2.347,0,0,0,131.824,0h-9.29a2.347,2.347,0,0,0-2.37,2.37V5.451h2.844V2.844Z" transform="translate(-104.036 0)"/><path class="b" d="M39.117,55.9H7.169a1.422,1.422,0,0,0,0,2.844H9.207l2.37,26.734A1.4,1.4,0,0,0,13,86.759H33.334a1.4,1.4,0,0,0,1.422-1.28l2.37-26.734h2.086a1.4,1.4,0,0,0,1.422-1.422A1.478,1.478,0,0,0,39.117,55.9Z" transform="translate(0 -50.83)"/><g transform="translate(16.222 10.662)"><path class="c" d="M184.657,135.8V118.973a1.422,1.422,0,1,0-2.844,0V135.8a1.422,1.422,0,0,0,2.844,0Z" transform="translate(-176.314 -117.548)"/><path class="c" d="M237.684,117.525a1.4,1.4,0,0,0-1.469,1.375l-.616,16.827a1.4,1.4,0,0,0,1.375,1.469h.047a1.449,1.449,0,0,0,1.422-1.375l.616-16.827A1.424,1.424,0,0,0,237.684,117.525Z" transform="translate(-225.218 -117.523)"/><path class="c" d="M123.245,137.2h0a1.465,1.465,0,0,0,1.422-1.469l-.616-16.827a1.4,1.4,0,0,0-1.469-1.375,1.458,1.458,0,0,0-1.375,1.469l.616,16.827A1.449,1.449,0,0,0,123.245,137.2Z" transform="translate(-121.207 -117.523)"/></g></g></svg>