<svg xmlns="http://www.w3.org/2000/svg" xmlns:xlink="http://www.w3.org/1999/xlink" viewBox="0 0 20 20"><defs><style>.a{fill:#607d8b;}.b{fill:#093448;}.c{fill:#fff;}.d{fill:url(#a);}.e{fill:url(#b);}.f{fill:url(#c);}.g{fill:url(#d);}.h{fill:url(#e);}.i{fill:url(#f);}.j{fill:url(#g);}</style><linearGradient id="a" x1="0.719" y1="-1.808" x2="-0.182" y2="-0.907" gradientUnits="objectBoundingBox"><stop offset="0" stop-color="#ffcf95"/><stop offset="0.054" stop-color="#fed19a"/><stop offset="1" stop-color="#e8efee"/></linearGradient><linearGradient id="b" x1="0.442" y1="-4.255" x2="0.489" y2="-4.529" gradientUnits="objectBoundingBox"><stop offset="0" stop-color="#c69c6d" stop-opacity="0"/><stop offset="1" stop-color="#754c24"/></linearGradient><linearGradient id="c" x1="0.425" y1="2.879" x2="0.333" y2="2.788" gradientUnits="objectBoundingBox"><stop offset="0" stop-color="#fff"/><stop offset="1" stop-color="#e8efee"/></linearGradient><linearGradient id="d" x1="0.29" y1="3.076" x2="0.217" y2="3.003" xlink:href="#c"/><linearGradient id="e" x1="0.181" y1="2.629" x2="0.365" y2="2.812" gradientUnits="objectBoundingBox"><stop offset="0" stop-color="#ffc200" stop-opacity="0"/><stop offset="0.203" stop-color="#fb0" stop-opacity="0.204"/><stop offset="0.499" stop-color="#ffa700" stop-opacity="0.498"/><stop offset="0.852" stop-color="#f80" stop-opacity="0.851"/><stop offset="1" stop-color="#ff7800"/></linearGradient><linearGradient id="f" x1="0.488" y1="-9.934" x2="-0.003" y2="-10.424" gradientUnits="objectBoundingBox"><stop offset="0" stop-color="#363f3e"/><stop offset="1" stop-color="#303033"/></linearGradient><linearGradient id="g" x1="-0.06" y1="5.496" x2="0.282" y2="5.155" gradientUnits="objectBoundingBox"><stop offset="0" stop-color="#c2cece" stop-opacity="0"/><stop offset="0.55" stop-color="#c2cece"/><stop offset="1" stop-color="#c2cece" stop-opacity="0"/></linearGradient></defs><g transform="translate(-406.254 -160.72)"><g transform="translate(406.254 160.72)"><path class="a" d="M207.138,111.62v18.6a.679.679,0,0,1-.657.7H194.5a.679.679,0,0,1-.657-.7V114.656h3.509v-3.735h9.132A.679.679,0,0,1,207.138,111.62Z" transform="translate(-193.84 -110.921)"/><path class="b" d="M197.35,110.921v3.735h-3.509Z" transform="translate(-193.841 -110.921)"/><g transform="translate(1.383 6.043)"><path class="c" d="M221.031,221.374a.237.237,0,0,1-.166-.069l-.634-.616a.274.274,0,0,1-.016-.37.236.236,0,0,1,.348-.017l.453.44,1.5-1.746a.236.236,0,0,1,.348-.017.274.274,0,0,1,.016.37l-1.664,1.94A.239.239,0,0,1,221.031,221.374Z" transform="translate(-220.151 -218.91)"/><path class="c" d="M221.031,276.082a.238.238,0,0,1-.166-.069l-.634-.617a.274.274,0,0,1-.016-.37.236.236,0,0,1,.348-.017l.453.44,1.5-1.746a.236.236,0,0,1,.348-.017.274.274,0,0,1,.016.37L221.213,276a.24.24,0,0,1-.171.085Z" transform="translate(-220.151 -270.557)"/><path class="c" d="M221.031,330.784a.238.238,0,0,1-.166-.069l-.634-.617a.274.274,0,0,1-.016-.37.236.236,0,0,1,.348-.017l.453.44,1.5-1.746a.236.236,0,0,1,.348-.017.274.274,0,0,1,.016.37l-1.664,1.94a.24.24,0,0,1-.171.085Z" transform="translate(-220.151 -322.197)"/><path class="c" d="M221.031,385.491a.238.238,0,0,1-.166-.069l-.634-.617a.274.274,0,0,1-.016-.37.236.236,0,0,1,.348-.017l.453.44,1.5-1.746a.236.236,0,0,1,.348-.017.274.274,0,0,1,.016.37l-1.664,1.94a.24.24,0,0,1-.171.085Z" transform="translate(-220.151 -373.842)"/><rect class="c" width="6.357" height="0.699" transform="translate(4.173 1.048)"/><rect class="c" width="6.357" height="0.699" transform="translate(4.173 4.11)"/><rect class="c" width="6.357" height="0.699" transform="translate(4.173 7.171)"/><rect class="c" width="6.357" height="0.699" transform="translate(4.173 10.233)"/></g></g><g transform="translate(412.528 165.948)"><path class="d" d="M3.236,342.383l-1.349-1.436-.452.481a1.333,1.333,0,0,0-.3.519L.009,345.584a.18.18,0,0,0,.22.234l3.417-1.2a1.228,1.228,0,0,0,.488-.32l.452-.481Z" transform="translate(0 -331.219)"/><path class="e" d="M4.133,430.376a1.227,1.227,0,0,1-.488.32l-3.417,1.2a.162.162,0,0,1-.093,0l-.127.41a.18.18,0,0,0,.22.234l3.417-1.2a1.228,1.228,0,0,0,.488-.32l.452-.481-.3-.324Z" transform="translate(0 -417.943)"/><path class="a" d="M53.024,87.721a.7.7,0,0,0,0-.943l-.013-.014a.6.6,0,0,0-.541-.187.141.141,0,0,1-.128-.044A.162.162,0,0,1,52.3,86.4a0,0,0,0,1,0,0c0-.013,0-.027,0-.04s0-.014,0-.021,0-.029,0-.044a.687.687,0,0,0-.183-.471l-.013-.014-.024-.024-.021-.019a.391.391,0,0,0-.033-.027l-.019-.014-.028-.019-.027-.016-.036-.019-.031-.013-.029-.011a.586.586,0,0,0-.076-.021l-.036-.006-.036,0-.036,0h-.036a.579.579,0,0,0-.072.007.141.141,0,0,1-.128-.044.162.162,0,0,1-.042-.136.7.7,0,0,0,.008-.1.687.687,0,0,0-.183-.471l-.013-.014a.6.6,0,0,0-.886,0l7.621-8.112,2.7,2.871Z" transform="translate(-48.977 -74.548)"/><path class="a" d="M371.733,4.08l-2.7-2.871.845-.9a.947.947,0,0,1,1.4,0l1.3,1.383a1.1,1.1,0,0,1,0,1.489Z" transform="translate(-359.142 0)"/><path class="f" d="M338.362,40.7l-2.7-2.871-1.043,1.11,2.7,2.871Z" transform="translate(-325.651 -36.752)"/><path class="g" d="M337.666,66.644l-2.7-2.871-.348.37,2.7,2.871Z" transform="translate(-325.651 -61.953)"/><path class="h" d="M320.693,80.09l-2.7-2.871.446-.474,2.7,2.871Z" transform="translate(-309.47 -74.554)"/><path class="i" d="M.3,471.179l-.285.921a.18.18,0,0,0,.22.234l.865-.3Z" transform="translate(-0.002 -457.735)"/><path class="j" d="M352.813,55.036l-.894-.952-1.043,1.11.894.952Z" transform="translate(-341.469 -52.541)"/></g></g></svg>