<svg xmlns="http://www.w3.org/2000/svg" viewBox="0 0 29.058 37.13"><defs><style>.a{fill:#607d8b;}.b{fill:#4f6975;}.c{fill:#fff;}.d{fill:#e6f3ff;}</style></defs><path class="a" d="M83.5,37.13H56.863a1.211,1.211,0,0,1-1.211-1.211V1.211A1.211,1.211,0,0,1,56.863,0h16.95a1.211,1.211,0,0,1,.856.355l9.686,9.686a1.211,1.211,0,0,1,.355.856V35.919A1.211,1.211,0,0,1,83.5,37.13Z" transform="translate(-55.652)"/><path class="a" d="M260.488.355A1.211,1.211,0,0,0,259.632,0H256V37.13h13.318a1.211,1.211,0,0,0,1.211-1.211V10.9a1.211,1.211,0,0,0-.355-.856Z" transform="translate(-241.471)"/><path class="b" d="M301.144,10.041,291.458.355A1.211,1.211,0,0,0,290.6,0h-1.21V10.9a1.211,1.211,0,0,0,1.211,1.211h10.9V10.9A1.21,1.21,0,0,0,301.144,10.041Z" transform="translate(-272.441)"/><g transform="translate(4.843 17.758)"><ellipse class="c" cx="1.211" cy="1.211" rx="1.211" ry="1.211" transform="translate(0)"/><ellipse class="c" cx="1.211" cy="1.211" rx="1.211" ry="1.211" transform="translate(0 4.843)"/><ellipse class="c" cx="1.211" cy="1.211" rx="1.211" ry="1.211" transform="translate(0 9.686)"/><path class="c" d="M202.535,380.856H190.428a1.211,1.211,0,1,1,0-2.422h12.107a1.211,1.211,0,1,1,0,2.422Z" transform="translate(-184.374 -368.748)"/></g><path class="d" d="M264.475,378.435H256v2.422h8.475a1.211,1.211,0,1,0,0-2.422Z" transform="translate(-241.471 -350.991)"/><path class="c" d="M202.535,314.073H190.428a1.211,1.211,0,1,1,0-2.422h12.107a1.211,1.211,0,1,1,0,2.422Z" transform="translate(-179.531 -289.05)"/><path class="d" d="M264.475,311.652H256v2.421h8.475a1.211,1.211,0,1,0,0-2.421Z" transform="translate(-241.471 -289.051)"/><path class="c" d="M202.535,247.291H190.428a1.211,1.211,0,1,1,0-2.422h12.107a1.211,1.211,0,1,1,0,2.422Z" transform="translate(-179.531 -227.111)"/><path class="d" d="M264.475,244.87H256v2.421h8.475a1.211,1.211,0,1,0,0-2.421Z" transform="translate(-241.471 -227.112)"/></svg>