<svg xmlns="http://www.w3.org/2000/svg" viewBox="0 0 20 20"><defs><style>.a{fill:#607d8b;}.b{fill:#c7cacc;}.c{fill:#dadddf;}.d{fill:#eff3f5;}.e{fill:#616161;}.f{fill:#de4c3c;}.g{fill:#88b337;}.h{fill:#b6b8ba;}.i{fill:#d1d4d6;}.j{fill:#c0c2c4;}</style></defs><g transform="translate(0 -0.16)"><path class="a" d="M2.414,195.71H1.379A1.379,1.379,0,0,1,0,194.331v-6.9a1.379,1.379,0,0,1,1.379-1.379H18.621A1.379,1.379,0,0,1,20,187.434v6.9a1.379,1.379,0,0,1-1.379,1.379H17.586" transform="translate(0 -179.688)"/><path class="a" d="M128.432,186.055H123.26l-9.655,9.655h14.828a1.379,1.379,0,0,0,1.379-1.379v-6.9A1.379,1.379,0,0,0,128.432,186.055Zm0,0" transform="translate(-109.812 -179.688)"/><path class="b" d="M86.431,82.777h-13.1a1.034,1.034,0,0,0-1.035,1.035v2.414H87.465V83.812A1.034,1.034,0,0,0,86.431,82.777Zm0,0" transform="translate(-69.879 -79.859)"/><path class="c" d="M113.605,6.367V.16H123.95l2.069,2.069V6.367" transform="translate(-109.812 0)"/><path class="d" d="M425.5,2.229H423.43V.16Zm0,0" transform="translate(-409.292 0)"/><path class="b" d="M87.465,433.918v3.1a1.034,1.034,0,0,1-1.035,1.034h-13.1a1.034,1.034,0,0,1-1.035-1.034v-3.1Zm0,0" transform="translate(-69.879 -419.275)"/><path class="e" d="M73.672,354.056H72.293V351.3H87.465v2.759H86.086" transform="translate(-69.879 -339.413)"/><path class="f" d="M497.1,228.057a.69.69,0,1,1-.69-.69A.69.69,0,0,1,497.1,228.057Zm0,0" transform="translate(-479.171 -219.621)"/><path class="g" d="M414.484,228.057a.69.69,0,1,1-.69-.69A.69.69,0,0,1,414.484,228.057Zm0,0" transform="translate(-399.312 -219.621)"/><path class="c" d="M113.605,351.3h12.414v8.276H113.605Zm0,0" transform="translate(-109.812 -339.413)"/><path class="h" d="M361.465,516.539h2.759v.69h-2.759Zm0,0" transform="translate(-349.396 -499.137)"/><path class="h" d="M268.516,475.227h5.862v.69h-5.862Zm0,0" transform="translate(-259.551 -459.205)"/><path class="h" d="M154.914,433.918h9.655v.69h-9.655Zm0,0" transform="translate(-149.742 -419.275)"/><path class="h" d="M154.914,475.227h3.1v.69h-3.1Zm0,0" transform="translate(-149.742 -459.205)"/><path class="h" d="M154.914,392.605h5.862v.69h-5.862Zm0,0" transform="translate(-149.742 -379.341)"/><path class="h" d="M351.137,392.605h3.1v.69h-3.1Zm0,0" transform="translate(-339.413 -379.341)"/><path class="i" d="M113.605,351.3h12.414v.69H113.605Zm0,0" transform="translate(-109.812 -339.413)"/><path class="j" d="M72.293,433.918h1.379V435.3H72.293Zm0,0" transform="translate(-69.879 -419.275)"/><path class="j" d="M485.395,433.918h1.379V435.3h-1.379Zm0,0" transform="translate(-469.188 -419.275)"/></g></svg>