<svg xmlns="http://www.w3.org/2000/svg" viewBox="0 0 34 38.857"><defs><style>.a{fill:#e2e5e7;}.b{fill:#b0b7bd;}.c{fill:#cad1d8;}.d{fill:#607d8b;}.e{fill:#fff;}</style></defs><g transform="translate(-32)"><path class="a" d="M98.429,0A2.436,2.436,0,0,0,96,2.429v34a2.436,2.436,0,0,0,2.429,2.429h24.286a2.436,2.436,0,0,0,2.429-2.429V9.714L115.429,0Z" transform="translate(-59.143)"/><path class="b" d="M354.429,9.714h7.286L352,0V7.286A2.436,2.436,0,0,0,354.429,9.714Z" transform="translate(-295.714)"/><path class="c" d="M391.286,135.286,384,128h7.286Z" transform="translate(-325.286 -118.286)"/><path class="d" d="M61.143,253.357a1.218,1.218,0,0,1-1.214,1.214H33.214A1.218,1.218,0,0,1,32,253.357V241.214A1.218,1.218,0,0,1,33.214,240H59.929a1.218,1.218,0,0,1,1.214,1.214Z" transform="translate(0 -221.786)"/><g transform="translate(38.972 22.337)"><path class="e" d="M124.528,301.274a.6.6,0,0,1-.505-1.009l3.457-4.592h-2.866a.6.6,0,1,1,0-1.192h3.914c.737,0,.951.7.427,1.262l-3.311,4.3H128.8a.619.619,0,1,1-.077,1.234h-4.2Z" transform="translate(-123.862 -294.468)"/><path class="e" d="M212.048,295.744a.642.642,0,0,1,1.282,0v5.543a.642.642,0,0,1-1.282,0Z" transform="translate(-205.355 -295.073)"/><path class="e" d="M251.616,294.99a.668.668,0,0,1,.661-.67h2.243a2.428,2.428,0,0,1,0,4.855H252.9v1.282a.61.61,0,0,1-.622.669.655.655,0,0,1-.661-.669V294.99Zm1.281.552v2.419h1.621a1.21,1.21,0,0,0,0-2.419Z" transform="translate(-241.92 -294.32)"/></g><path class="c" d="M119.071,417.214H96v1.214h23.071a1.218,1.218,0,0,0,1.214-1.214V416A1.218,1.218,0,0,1,119.071,417.214Z" transform="translate(-59.143 -384.429)"/></g></svg>